<svg aria-hidden="true" style="position: absolute; width: 0; height: 0; overflow: hidden;" version="1.1" xmlns="http://www.w3.org/2000/svg" xmlns:xlink="http://www.w3.org/1999/xlink">
<defs>
<symbol id="icon-email" viewBox="0 0 32 32">
<path d="M5.315 9.274l7.735 6.726-7.737 6.728c-0.194-0.184-0.313-0.445-0.313-0.735v-11.986c0-0.289 0.121-0.549 0.315-0.733zM27.687 9.272c0.194 0.184 0.313 0.445 0.313 0.735v11.986c0 0.289-0.121 0.549-0.315 0.733l-7.735-6.726 7.737-6.728zM19.202 16.651l7.298 6.349h-20l7.298-6.349 2.702 2.349 2.702-2.349zM6.004 8c-1.107 0-2.004 0.895-2.004 1.994v12.012c0 1.101 0.89 1.994 2.004 1.994h20.993c1.107 0 2.004-0.895 2.004-1.994v-12.012c0-1.101-0.89-1.994-2.004-1.994h-20.993zM16.5 17.7l-10-8.7h20l-10 8.7z"></path>
</symbol>
<symbol id="icon-github" viewBox="0 0 32 32">
<path d="M11.241 24.555c0 0.116-0.133 0.209-0.301 0.209-0.191 0.017-0.325-0.075-0.325-0.209 0-0.116 0.133-0.209 0.301-0.209 0.174-0.017 0.325 0.075 0.325 0.209z"></path>
<path d="M9.439 24.294c-0.041 0.116 0.075 0.249 0.249 0.284 0.151 0.058 0.325 0 0.359-0.116s-0.075-0.249-0.249-0.302c-0.151-0.040-0.319 0.017-0.359 0.133v0z"></path>
<path d="M12.001 24.196c-0.168 0.041-0.284 0.151-0.267 0.284 0.017 0.116 0.168 0.191 0.342 0.151 0.168-0.041 0.284-0.151 0.267-0.267-0.017-0.11-0.174-0.186-0.342-0.168z"></path>
<path fill="none" stroke="#000" style="stroke: var(--color1, #000)" stroke-linejoin="round" stroke-linecap="round" stroke-miterlimit="10" stroke-width="1.25" d="M15.815 1.984c-8.040 0-14.189 6.104-14.189 14.143 0 6.428 4.046 11.929 9.825 13.865 0.742 0.133 1.003-0.325 1.003-0.701 0-0.359-0.017-2.342-0.017-3.559 0 0-4.058 0.869-4.91-1.727 0 0-1.887-2.32-2.837-2.755 0 0-1.327-1.267 0.093-1.25 0 0 2.669 0.145 3.463 1.525 1.269 2.237 3.397 1.594 4.226 1.211 0.133-0.927 0.51-1.729 0.927-2.111-3.24-0.359-6.509-0.049-6.509-5.625 0-1.594 0.441-2.494 1.368-3.514-0.151-0.377-0.643-1.93 0.151-3.936 1.211-0.377 3.999 1.565 3.999 1.565 1.159-0.325 2.406-0.493 3.64-0.493s2.481 0.168 3.64 0.493c0 0 2.788-1.948 4-1.565 0.794 2.011 0.301 3.559 0.151 3.936 0.927 1.026 1.495 1.926 1.495 3.514 0 5.593-3.414 6.221-6.654 6.586 0.533 0.458 0.985 1.485 0.985 2.847 0 1.953-0.017 4.37-0.017 4.846 0 0.377 0.267 0.835 1.003 0.701 5.796-1.924 9.726-7.425 9.726-13.853-0-8.040-6.521-14.143-14.561-14.143z"></path>
<path d="M7.259 21.976c-0.075 0.058-0.058 0.191 0.040 0.301 0.093 0.093 0.226 0.133 0.301 0.058 0.075-0.058 0.058-0.191-0.041-0.301-0.093-0.093-0.226-0.133-0.301-0.058z"></path>
<path d="M6.633 21.506c-0.040 0.075 0.017 0.168 0.133 0.226 0.093 0.058 0.209 0.041 0.249-0.041 0.040-0.075-0.017-0.168-0.133-0.226-0.116-0.035-0.209-0.017-0.249 0.041z"></path>
<path d="M8.511 23.57c-0.093 0.075-0.058 0.249 0.075 0.359 0.133 0.133 0.301 0.151 0.377 0.058 0.075-0.075 0.041-0.249-0.075-0.359-0.127-0.133-0.301-0.151-0.377-0.058z"></path>
<path d="M7.85 22.718c-0.093 0.058-0.093 0.209 0 0.342s0.249 0.191 0.325 0.133c0.093-0.075 0.093-0.226 0-0.359-0.081-0.133-0.232-0.191-0.325-0.116v0z"></path>
</symbol>
<symbol id="icon-linkedin" viewBox="0 0 32 32">
<path d="M3.751 0.348c-2.173 0-3.751 1.499-3.751 3.563 0 2.063 1.546 3.561 3.676 3.561 1.105 0 2.056-0.358 2.753-1.036 0.668-0.65 1.036-1.547 1.035-2.541-0.049-2.088-1.576-3.547-3.713-3.547zM5.459 5.439c-0.431 0.42-1.048 0.642-1.783 0.642-1.345 0-2.285-0.892-2.285-2.17 0-1.299 0.948-2.172 2.359-2.172 1.38 0 2.291 0.859 2.322 2.172 0 0.6-0.218 1.142-0.614 1.528z"></path>
<path d="M0.667 31.634h6.253v-22.987h-6.253v22.987zM2.058 10.038h3.47v20.205h-3.47v-20.205z"></path>
<path d="M23.408 8.647c-2.899 0-4.675 1.001-5.703 1.942l-0.196-1.942h-7.074v22.987h6.928v-12.082c0-0.52 0.211-1.601 0.343-1.886 0.837-1.803 1.966-1.803 3.676-1.803 1.969 0 3.633 1.847 3.633 4.033v11.738h6.957v-12.988c0-6.87-4.44-9.999-8.564-9.999zM30.58 30.243h-4.174v-10.347c0-2.94-2.301-5.424-5.024-5.424-1.747 0-3.728 0-4.938 2.608-0.25 0.539-0.472 1.831-0.472 2.472v10.691h-4.145v-20.205h4.425l0.284 2.813h1.14l0.204-0.329c0.464-0.747 1.931-2.485 5.529-2.485 3.454 0 7.173 2.694 7.173 8.608v11.597z"></path>
</symbol>
<symbol id="icon-location" viewBox="0 0 32 32">
<path d="M11.377 23.871c-1.303 0.265-2.968 0.73-4.287 1.996-0.661 0.635-0.991 1.396-0.927 2.144 0.061 0.717 0.487 1.377 1.198 1.857 0.763 0.518 1.604 0.91 2.491 1.161 1.922 0.537 3.908 0.81 5.903 0.813 1.489-0.001 2.974-0.155 4.432-0.459 1.413-0.295 3.049-0.739 4.457-1.802 0.68-0.513 1.081-1.145 1.158-1.825 0.078-0.687-0.174-1.399-0.73-2.061-0.775-0.924-1.8-1.558-3.132-1.937-0.499-0.143-1.017-0.238-1.518-0.33-0.165-0.030-0.329-0.061-0.494-0.093 0.202-0.314 0.404-0.627 0.608-0.939 0.514-0.791 1.045-1.609 1.535-2.433 1.463-2.465 3.186-5.781 3.526-9.579 0.359-4.002-0.902-6.867-3.856-8.758-2.048-1.312-4.334-1.753-6.793-1.31-3.717 0.669-6.146 2.842-7.22 6.461-0.64 2.158-0.406 4.339-0.13 5.999 0.452 2.724 1.474 5.449 3.313 8.837 0.287 0.528 0.59 1.032 0.911 1.565 0.112 0.185 0.224 0.372 0.336 0.561l-0.143 0.023c-0.223 0.036-0.432 0.070-0.639 0.111zM16.156 25.198c-0.085 0.111-0.172 0.222-0.258 0.334-1.729-1.475-2.836-3.361-3.775-5.183-1.208-2.345-2.499-5.167-2.914-8.318-0.355-2.697-0.089-4.687 0.861-6.456 1.181-2.198 3.529-3.585 6.281-3.713 0.135-0.006 0.269-0.009 0.402-0.009 2.532 0 4.771 1.119 6.046 3.039 0.811 1.223 1.169 2.649 1.128 4.486-0.047 2.046-0.612 4.155-1.78 6.636-1.317 2.802-3.038 5.5-5.26 8.249-0.248 0.306-0.483 0.611-0.732 0.934zM12.789 24.882c0.139 0.006 0.271 0.061 0.373 0.155 0.783 0.897 1.752 1.611 2.84 2.094 0.476 0.21 0.9 0.081 1.259-0.383l0.245-0.317c0.331-0.43 0.674-0.875 1.031-1.293 0.106-0.132 0.258-0.218 0.425-0.241 1.224 0.099 2.51 0.286 3.628 0.975 0.471 0.3 0.893 0.672 1.252 1.101 0.078 0.077 0.139 0.17 0.18 0.272s0.061 0.211 0.058 0.32c-0.019 0.112-0.060 0.218-0.121 0.313s-0.141 0.177-0.235 0.24c-0.423 0.337-0.887 0.619-1.382 0.839-1.855 0.824-3.993 1.234-6.729 1.291-1.985-0.073-3.918-0.19-5.753-0.808-0.598-0.195-1.167-0.469-1.693-0.815-0.368-0.248-0.572-0.539-0.59-0.84-0.016-0.284 0.137-0.572 0.443-0.834 0.659-0.564 1.398-1.028 2.192-1.378 0.634-0.276 1.342-0.429 2.027-0.577 0.168-0.036 0.335-0.073 0.502-0.111 0.016-0.003 0.032-0.005 0.048-0.005z"></path>
<path d="M20.080 8.712c0-0.036 0.001-0.071 0.002-0.106 0.006-0.156 0.004-0.311-0.006-0.467-0.045-0.598-0.239-1.175-0.566-1.678s-0.775-0.915-1.304-1.198c-0.514-0.271-1.088-0.405-1.668-0.391s-1.147 0.177-1.647 0.472c-1.18 0.669-1.92 1.796-2.141 3.259-0.287 1.9 1.063 3.758 3.009 4.144 0.262 0.052 0.529 0.079 0.796 0.080 1.638 0 2.975-1.045 3.382-2.734 0.063-0.284 0.111-0.572 0.143-0.861 0.017-0.13 0.034-0.261 0.054-0.39 0.003-0.018 0.002-0.036-0.003-0.053s-0.012-0.034-0.023-0.048c-0.008-0.010-0.017-0.019-0.027-0.027zM18.608 8.87l-0.003 0.054c-0.003 0.059-0.006 0.138-0.013 0.217-0.068 0.823-0.369 1.464-0.871 1.852-0.446 0.345-1.030 0.468-1.689 0.354-0.344-0.072-0.67-0.212-0.959-0.413s-0.534-0.458-0.721-0.755c-0.17-0.271-0.28-0.576-0.321-0.894s-0.012-0.641 0.084-0.946c0.248-0.848 0.615-1.666 1.61-1.917 0.24-0.062 0.487-0.094 0.735-0.096 0.47-0.011 0.929 0.138 1.303 0.424 0.558 0.441 0.858 1.194 0.845 2.119v0.001z"></path>
</symbol>
<symbol id="icon-whatsapp" viewBox="0 0 32 32">
<path d="M27.281 4.65c-2.994-3-6.975-4.65-11.219-4.65-8.738 0-15.85 7.112-15.85 15.856 0 2.794 0.731 5.525 2.119 7.925l-2.25 8.219 8.406-2.206c2.319 1.262 4.925 1.931 7.575 1.931h0.006c0 0 0 0 0 0 8.738 0 15.856-7.113 15.856-15.856 0-4.238-1.65-8.219-4.644-11.219zM16.069 29.050v0c-2.369 0-4.688-0.637-6.713-1.837l-0.481-0.288-4.987 1.306 1.331-4.863-0.313-0.5c-1.325-2.094-2.019-4.519-2.019-7.012 0-7.269 5.912-13.181 13.188-13.181 3.519 0 6.831 1.375 9.319 3.862 2.488 2.494 3.856 5.8 3.856 9.325-0.006 7.275-5.919 13.188-13.181 13.188zM23.294 19.175c-0.394-0.2-2.344-1.156-2.706-1.288s-0.625-0.2-0.894 0.2c-0.262 0.394-1.025 1.288-1.256 1.556-0.231 0.262-0.462 0.3-0.856 0.1s-1.675-0.619-3.188-1.969c-1.175-1.050-1.975-2.35-2.206-2.744s-0.025-0.613 0.175-0.806c0.181-0.175 0.394-0.463 0.594-0.694s0.262-0.394 0.394-0.662c0.131-0.262 0.069-0.494-0.031-0.694s-0.894-2.15-1.219-2.944c-0.319-0.775-0.65-0.669-0.894-0.681-0.231-0.012-0.494-0.012-0.756-0.012s-0.694 0.1-1.056 0.494c-0.363 0.394-1.387 1.356-1.387 3.306s1.419 3.831 1.619 4.1c0.2 0.262 2.794 4.269 6.769 5.981 0.944 0.406 1.681 0.65 2.256 0.837 0.95 0.3 1.813 0.256 2.494 0.156 0.762-0.113 2.344-0.956 2.675-1.881s0.331-1.719 0.231-1.881c-0.094-0.175-0.356-0.275-0.756-0.475z"></path>
</symbol>
<symbol id="icon-phone" viewBox="0 0 32 32">
<path  d="M10.515 0.81h10.965c1.406 0 2.545 1.139 2.545 2.545v25.18c0 1.406-1.139 2.545-2.545 2.545h-10.965c-1.406 0-2.545-1.139-2.545-2.545v-25.18c0-1.406 1.139-2.545 2.545-2.545z"></path>
<path  d="M7.97 4.375h16.060"></path>
<path  d="M7.97 27.21h16.060"></path>
<path  d="M14.915 28.915h1.925"></path>
</symbol>
<symbol id="icon-telegram" viewBox="0 0 32 32">
<path stroke-linejoin="round" stroke-linecap="round" stroke-miterlimit="4" stroke-width="1.5" d="M11 16.863l11.238 9.887c0.176 0.156 0.408 0.251 0.663 0.251 0.473 0 0.869-0.328 0.973-0.769l0.001-0.007 4.7-20.525c0.015-0.065 0.024-0.141 0.024-0.218 0-0.552-0.448-1-1-1-0.13 0-0.254 0.025-0.368 0.070l0.007-0.002-23.075 9.063c-0.925 0.363-0.8 1.713 0.175 1.912z"></path>
<path stroke-linejoin="round" stroke-linecap="round" stroke-miterlimit="4" stroke-width="1.5" d="M11 16.863l17.012-12.287"></path>
<path stroke-linejoin="round" stroke-linecap="round" stroke-miterlimit="4" stroke-width="1.5" d="M16.613 21.8l-3.9 3.9c-0.181 0.184-0.434 0.298-0.713 0.298-0.552 0-0.999-0.447-1-0.998v-8.138"></path>
</symbol>

</defs>
</svg>
