<svg aria-hidden="true" style="position: absolute; width: 0; height: 0; overflow: hidden;" version="1.1" xmlns="http://www.w3.org/2000/svg" xmlns:xlink="http://www.w3.org/1999/xlink">
<defs>
<symbol id="icon-brand-github" viewBox="0 0 32 32">
<path stroke-linejoin="round" stroke-linecap="round" stroke-miterlimit="4" stroke-width="2.6667" d="M12 25.333c-5.733 1.867-5.733-3.333-8-4M20 28v-4.667c0-1.333 0.133-1.867-0.667-2.667 3.733-0.4 7.333-1.867 7.333-8-0.002-1.66-0.663-3.165-1.735-4.268l0.001 0.001c0.227-0.586 0.359-1.263 0.359-1.972 0-0.831-0.181-1.62-0.506-2.33l0.014 0.035s-1.467-0.4-4.667 1.733c-1.24-0.336-2.664-0.529-4.133-0.529s-2.893 0.193-4.248 0.556l0.115-0.026c-3.2-2.133-4.667-1.733-4.667-1.733-0.311 0.675-0.492 1.464-0.492 2.295 0 0.708 0.132 1.386 0.372 2.010l-0.013-0.038c-1.071 1.102-1.732 2.607-1.733 4.266v0c0 6.133 3.6 7.6 7.333 8-0.8 0.8-0.8 1.6-0.667 2.667v4.667"></path>
</symbol>
<symbol id="icon-brand-linkedin" viewBox="0 0 32 32">
<path stroke-linejoin="round" stroke-linecap="round" stroke-miterlimit="4" stroke-width="2.6667" d="M10.667 14.667v6.667"></path>
<path stroke-linejoin="round" stroke-linecap="round" stroke-miterlimit="4" stroke-width="2.6667" d="M10.667 10.667v0.013"></path>
<path stroke-linejoin="round" stroke-linecap="round" stroke-miterlimit="4" stroke-width="2.6667" d="M16 21.333v-6.667"></path>
<path stroke-linejoin="round" stroke-linecap="round" stroke-miterlimit="4" stroke-width="2.6667" d="M21.333 21.333v-4c0-1.473-1.194-2.667-2.667-2.667s-2.667 1.194-2.667 2.667v0"></path>
<path stroke-linejoin="round" stroke-linecap="round" stroke-miterlimit="4" stroke-width="2.6667" d="M4 9.333c0-2.946 2.388-5.333 5.333-5.333v0h13.333c2.946 0 5.333 2.388 5.333 5.333v0 13.333c0 2.946-2.388 5.333-5.333 5.333v0h-13.333c-2.946 0-5.333-2.388-5.333-5.333v0z"></path>
</symbol>
<symbol id="icon-brand-telegram" viewBox="0 0 32 32">
<path stroke-linejoin="round" stroke-linecap="round" stroke-miterlimit="4" stroke-width="2.6667" d="M20 13.333l-5.333 5.333 8 8 5.333-21.333-24 9.333 5.333 2.667 2.667 8 4-5.333"></path>
</symbol>
<symbol id="icon-brand-whatsapp" viewBox="0 0 32 32">
<path stroke-linejoin="round" stroke-linecap="round" stroke-miterlimit="4" stroke-width="2.6667" d="M4 28l2.2-5.067c-1.37-1.924-2.19-4.322-2.19-6.911 0-6.627 5.373-12 12-12s12 5.373 12 12c0 6.627-5.373 12-12 12-1.921 0-3.737-0.451-5.346-1.254l0.070 0.031-6.733 1.2"></path>
<path stroke-linejoin="round" stroke-linecap="round" stroke-miterlimit="4" stroke-width="2.6667" d="M12 13.333c0 0.368 0.298 0.667 0.667 0.667s0.667-0.298 0.667-0.667v0-1.333c0-0.368-0.298-0.667-0.667-0.667s-0.667 0.298-0.667 0.667v0 1.333c0 3.682 2.985 6.667 6.667 6.667v0h1.333c0.368 0 0.667-0.298 0.667-0.667s-0.298-0.667-0.667-0.667v0h-1.333c-0.368 0-0.667 0.298-0.667 0.667s0.298 0.667 0.667 0.667v0"></path>
</symbol>
<symbol id="icon-device-mobile" viewBox="0 0 32 32">
<path stroke-linejoin="round" stroke-linecap="round" stroke-miterlimit="4" stroke-width="2.6667" d="M8 6.667c0-1.473 1.194-2.667 2.667-2.667v0h10.667c1.473 0 2.667 1.194 2.667 2.667v0 18.667c0 1.473-1.194 2.667-2.667 2.667v0h-10.667c-1.473 0-2.667-1.194-2.667-2.667v0-18.667z"></path>
<path stroke-linejoin="round" stroke-linecap="round" stroke-miterlimit="4" stroke-width="2.6667" d="M14.667 5.333h2.667"></path>
<path stroke-linejoin="round" stroke-linecap="round" stroke-miterlimit="4" stroke-width="2.6667" d="M16 22.667v0.013"></path>
</symbol>
<symbol id="icon-mail" viewBox="0 0 32 32">
<path stroke-linejoin="round" stroke-linecap="round" stroke-miterlimit="4" stroke-width="2.6667" d="M4 9.333c0-1.473 1.194-2.667 2.667-2.667v0h18.667c1.473 0 2.667 1.194 2.667 2.667v0 13.333c0 1.473-1.194 2.667-2.667 2.667v0h-18.667c-1.473 0-2.667-1.194-2.667-2.667v0-13.333z"></path>
<path stroke-linejoin="round" stroke-linecap="round" stroke-miterlimit="4" stroke-width="2.6667" d="M4 9.333l12 8 12-8"></path>
</symbol>
<symbol id="icon-map-pin" viewBox="0 0 32 32">
<path stroke-linejoin="round" stroke-linecap="round" stroke-miterlimit="4" stroke-width="2.6667" d="M12 14.667c0 2.209 1.791 4 4 4s4-1.791 4-4v0c0-2.209-1.791-4-4-4s-4 1.791-4 4v0"></path>
<path stroke-linejoin="round" stroke-linecap="round" stroke-miterlimit="4" stroke-width="2.6667" d="M23.543 22.209l-5.657 5.657c-0.482 0.482-1.149 0.78-1.885 0.78s-1.402-0.298-1.885-0.78l-5.659-5.657c-1.93-1.93-3.124-4.597-3.124-7.542 0-5.891 4.776-10.667 10.667-10.667s10.667 4.776 10.667 10.667c0 2.945-1.194 5.612-3.124 7.542v0z"></path>
</symbol>
</defs>
</svg>

