<svg aria-hidden="true" style="position: absolute; width: 0; height: 0; overflow: hidden;" version="1.1" xmlns="http://www.w3.org/2000/svg" xmlns:xlink="http://www.w3.org/1999/xlink">
<defs>
<symbol id="icon-css" viewBox="0 0 32 32">
<path d="M10.002 0h3.437v1.438h-2v1.438h2v1.438h-3.437v-4.313z"></path>
<path d="M14.127 0h3.438v1.25h-2v0.25h2v2.875h-3.438v-1.313h2v-0.25h-2v-2.813z"></path>
<path d="M18.252 0h3.437v1.25h-2v0.25h2v2.875h-3.437v-1.313h2v-0.25h-2v-2.813z"></path>
<path d="M15.988 32l-9.258-2.57-2.73-23.141h24l-2.728 23.137-9.284 2.574zM9.396 16.764l0.254 2.838h9.836l-0.329 3.681-3.168 0.855-3.161-0.853-0.202-2.264h-2.849l0.398 4.456 5.814 1.614 5.822-1.614 0.71-7.951 0.069-0.762 0.512-5.745h-14.216l0.258 2.838h10.848l-0.258 2.906h-10.337z"></path>
</symbol>
<symbol id="icon-git" viewBox="0 0 32 32">
<path d="M16 0.373c-0.001 0-0.003 0-0.005 0-8.837 0-16 7.163-16 16 0 7.065 4.579 13.061 10.932 15.181l0.113 0.033h0.387c0.025 0.002 0.053 0.003 0.083 0.003 0.736 0 1.333-0.597 1.333-1.333 0-0.029-0.001-0.058-0.003-0.086l0 0.004v-0.28c0-0.227 0-0.533 0-1.453-0.028-0.182-0.126-0.337-0.265-0.439l-0.002-0.001c-0.114-0.092-0.26-0.148-0.419-0.148-0.050 0-0.098 0.005-0.145 0.016l0.004-0.001c-3.573 0.773-4.333-1.467-4.387-1.613-0.465-1.209-1.259-2.205-2.273-2.907l-0.021-0.013c-0.059-0.051-0.125-0.1-0.194-0.143l-0.006-0.004c0.115-0.063 0.252-0.1 0.398-0.1 0.038 0 0.076 0.003 0.113 0.008l-0.004-0c0.693 0.099 1.262 0.549 1.528 1.161l0.005 0.013c0.703 1.209 1.993 2.008 3.469 2.008 0.682 0 1.324-0.171 1.886-0.472l-0.021 0.010c0.197-0.088 0.342-0.263 0.386-0.476l0.001-0.004c0.055-0.642 0.329-1.212 0.747-1.641l-0.001 0.001c0.138-0.123 0.224-0.3 0.224-0.498 0-0.339-0.253-0.619-0.581-0.661l-0.003-0c-3.16-0.36-6.387-1.467-6.387-6.92-0.001-0.031-0.001-0.067-0.001-0.104 0-1.391 0.532-2.657 1.404-3.607l-0.004 0.004c0.107-0.118 0.172-0.275 0.172-0.447 0-0.094-0.019-0.183-0.054-0.264l0.002 0.004c-0.174-0.471-0.275-1.014-0.275-1.582 0-0.581 0.106-1.137 0.299-1.651l-0.011 0.032c1.292 0.234 2.43 0.775 3.373 1.544l-0.013-0.011c0.105 0.075 0.236 0.12 0.377 0.12 0.065 0 0.128-0.010 0.188-0.027l-0.005 0.001c1.094-0.309 2.352-0.489 3.651-0.493h0.003c1.305 0.001 2.568 0.181 3.765 0.517l-0.098-0.024c0.052 0.015 0.112 0.024 0.174 0.024 0.14 0 0.269-0.044 0.375-0.118l-0.002 0.001c0.932-0.756 2.069-1.296 3.314-1.526l0.046-0.007c0.172 0.472 0.272 1.018 0.272 1.587s-0.1 1.114-0.283 1.62l0.010-0.033c-0.033 0.076-0.052 0.166-0.052 0.259 0 0.172 0.066 0.33 0.173 0.448l-0-0.001c0.868 0.946 1.4 2.212 1.4 3.602 0 0.023-0 0.045-0 0.068l0-0.003c0 5.453-3.24 6.547-6.413 6.907-0.337 0.036-0.598 0.319-0.598 0.663 0 0.204 0.092 0.387 0.237 0.509l0.001 0.001c0.511 0.527 0.827 1.247 0.827 2.041 0 0.098-0.005 0.195-0.014 0.291l0.001-0.012v4.24c-0 0.013-0.001 0.029-0.001 0.045 0 0.422 0.185 0.802 0.479 1.061l0.002 0.001c0.264 0.199 0.597 0.319 0.959 0.319 0.162 0 0.318-0.024 0.466-0.069l-0.011 0.003c6.402-2.189 10.924-8.153 10.924-15.173 0-8.819-7.135-15.972-15.948-16h-0.003z"></path>
</symbol>
<symbol id="icon-html" viewBox="0 0 32 32">
<path d="M6.774 0h1.442v1.425h1.319v-1.425h1.442v4.315h-1.442v-1.445h-1.319v1.445h-1.442l-0-4.315z"></path>
<path d="M12.875 1.431h-1.27v-1.431h3.983v1.431h-1.27v2.884h-1.442l-0-2.884z"></path>
<path d="M16.22 0h1.504l0.925 1.516 0.924-1.516h1.505v4.315h-1.436v-2.139l-0.992 1.534h-0.025l-0.993-1.534v2.139h-1.411v-4.315z"></path>
<path d="M21.795 0h1.443v2.889h2.028v1.426h-3.471v-4.315z"></path>
<path d="M6.728 29.43l-2.728-23.141h24l-2.73 23.137-9.284 2.574-9.258-2.57zM12.245 16.764l-0.259-2.906h10.861l0.254-2.838h-14.216l0.765 8.583h9.836l-0.329 3.681-3.168 0.855-3.161-0.853-0.202-2.264h-2.849l0.398 4.456 5.814 1.614 5.821-1.614 0.71-7.951 0.069-0.762h-10.343z"></path>
</symbol>
<symbol id="icon-js" viewBox="0 0 32 32">
<path  d="M19.304 19.844c-0.157 0.016-0.34 0.026-0.525 0.026-0.871 0-1.693-0.206-2.422-0.571l0.031 0.014c-0.402-0.324-0.67-0.8-0.713-1.34l-0-0.007c-0.002-0.162-0.134-0.293-0.296-0.293-0.002 0-0.005 0-0.007 0h0c-0.422-0.005-0.844-0.004-1.266-0.001-0.009-0.001-0.019-0.001-0.029-0.001-0.144 0-0.263 0.109-0.28 0.248l-0 0.001c-0.003 0.049-0.004 0.106-0.004 0.163 0 0.907 0.388 1.724 1.006 2.294l0.002 0.002c0.816 0.641 1.84 1.051 2.957 1.117l0.015 0.001c0.372 0.046 0.802 0.072 1.238 0.072 0.757 0 1.496-0.078 2.209-0.227l-0.070 0.012c0.886-0.169 1.652-0.599 2.236-1.205l0.001-0.001c0.434-0.531 0.696-1.217 0.696-1.964 0-0.362-0.062-0.709-0.175-1.032l0.007 0.022c-0.296-0.711-0.89-1.246-1.623-1.455l-0.018-0.004c-1.708-0.599-3.552-0.554-5.293-1.009-0.302-0.095-0.672-0.198-0.806-0.518-0.040-0.111-0.063-0.239-0.063-0.372 0-0.365 0.172-0.69 0.439-0.899l0.003-0.002c0.486-0.283 1.070-0.449 1.692-0.449 0.037 0 0.075 0.001 0.112 0.002l-0.005-0c0.152-0.015 0.33-0.024 0.509-0.024 0.721 0 1.41 0.141 2.040 0.396l-0.036-0.013c0.476 0.284 0.815 0.756 0.914 1.311l0.002 0.012c0.005 0.168 0.137 0.303 0.302 0.314l0.001 0c0.419 0.009 0.838 0.002 1.257 0.003 0.011 0.001 0.023 0.002 0.036 0.002 0.14 0 0.258-0.095 0.293-0.224l0-0.002c0-0.006 0-0.014 0-0.021 0-1.178-0.628-2.21-1.568-2.778l-0.015-0.008c-0.963-0.456-2.093-0.721-3.285-0.721-0.355 0-0.704 0.024-1.046 0.069l0.040-0.004v-0c-1.119 0.047-2.128 0.481-2.906 1.17l0.005-0.004c-0.48 0.516-0.774 1.21-0.774 1.972 0 0.376 0.072 0.735 0.202 1.064l-0.007-0.020c0.312 0.683 0.894 1.197 1.606 1.411l0.018 0.005c1.702 0.615 3.567 0.417 5.286 0.961 0.335 0.114 0.725 0.287 0.827 0.66 0.024 0.095 0.038 0.204 0.038 0.317 0 0.37-0.152 0.705-0.398 0.945l-0 0c-0.594 0.374-1.316 0.596-2.090 0.596-0.106 0-0.211-0.004-0.315-0.012l0.014 0.001zM27.063 8.583q-4.985-2.819-9.971-5.632c-0.314-0.179-0.691-0.284-1.092-0.284s-0.777 0.106-1.103 0.29l0.011-0.006q-4.967 2.805-9.935 5.61c-0.639 0.353-1.066 1.021-1.072 1.789v11.3c0.011 0.782 0.455 1.458 1.102 1.801l0.011 0.005c0.951 0.518 1.876 1.088 2.844 1.572 0.557 0.304 1.221 0.482 1.926 0.482 0.626 0 1.219-0.141 1.75-0.393l-0.025 0.011c0.804-0.51 1.331-1.395 1.331-2.404 0-0.055-0.002-0.11-0.005-0.165l0 0.008c0.007-3.729 0.001-7.458 0.003-11.187 0.002-0.014 0.004-0.030 0.004-0.046 0-0.157-0.124-0.286-0.279-0.293l-0.001-0c-0.423-0.007-0.847-0.004-1.27-0.001-0.007-0.001-0.016-0.001-0.025-0.001-0.154 0-0.279 0.125-0.279 0.279 0 0.002 0 0.005 0 0.007v-0c-0.006 3.705 0.001 7.411-0.003 11.117 0 0.001 0 0.003 0 0.005 0 0.534-0.333 0.99-0.803 1.171l-0.009 0.003c-0.173 0.053-0.373 0.084-0.579 0.084-0.398 0-0.769-0.114-1.083-0.31l0.009 0.005q-1.322-0.747-2.644-1.493c-0.108-0.052-0.181-0.16-0.181-0.286 0-0.010 0-0.020 0.001-0.029l-0 0.001q0-5.592 0-11.183c-0.001-0.009-0.001-0.019-0.001-0.029 0-0.142 0.086-0.264 0.208-0.317l0.002-0.001q4.951-2.788 9.9-5.583c0.054-0.037 0.122-0.060 0.194-0.060s0.14 0.023 0.196 0.061l-0.001-0.001q4.951 2.789 9.901 5.581c0.124 0.055 0.209 0.178 0.209 0.32 0 0.010-0 0.020-0.001 0.030l0-0.001q-0.001 5.591-0.001 11.182c0.001 0.009 0.001 0.019 0.001 0.029 0 0.126-0.072 0.235-0.177 0.288l-0.002 0.001q-4.875 2.757-9.756 5.505c-0.155 0.087-0.339 0.226-0.521 0.121-0.852-0.482-1.694-0.983-2.543-1.47-0.046-0.035-0.104-0.056-0.167-0.056-0.051 0-0.1 0.014-0.141 0.039l0.001-0.001c-0.334 0.2-0.722 0.385-1.128 0.533l-0.048 0.015c-0.184 0.075-0.411 0.096-0.537 0.267 0.159 0.172 0.35 0.312 0.564 0.41l0.011 0.004q1.49 0.863 2.981 1.724c0.328 0.209 0.727 0.333 1.156 0.333 0.386 0 0.748-0.101 1.063-0.277l-0.011 0.006q4.968-2.801 9.936-5.605c0.658-0.349 1.101-1.024 1.114-1.805l0-0.002v-11.299c-0.006-0.754-0.418-1.41-1.027-1.763l-0.010-0.005z"></path>
</symbol>
<symbol id="icon-mongodb" viewBox="0 0 112 32">
<path fill="#8e714e" style="fill: var(--color2, #8e714e)" d="M102.181 13.589c-0.088 0.022-0.197 0.219-0.197 0.351-0.022 0.767-0.044 2.784-0.044 4.164 0 0.044 0.066 0.11 0.11 0.11 0.285 0.022 0.964 0.044 1.556 0.044 0.811 0 1.293-0.11 1.556-0.219 0.679-0.351 1.008-1.096 1.008-1.907 0-1.841-1.293-2.564-3.222-2.564-0.11-0.044-0.482-0.044-0.767 0.022v0 0zM107.090 22.115c0-1.885-1.381-2.937-3.901-2.937-0.11 0-0.921-0.022-1.096 0.022-0.066 0.022-0.132 0.066-0.132 0.11 0 1.359-0.022 3.507 0.044 4.34 0.044 0.373 0.307 0.877 0.636 1.030 0.351 0.197 1.118 0.219 1.666 0.219 1.469 0 2.784-0.833 2.784-2.784v0 0zM98.279 12.537c0.197 0 0.767 0.066 2.236 0.066 1.381 0 2.499-0.044 3.858-0.044 1.666 0 3.945 0.592 3.945 3.069 0 1.227-0.855 2.192-1.973 2.674-0.066 0.022-0.066 0.066 0 0.066 1.6 0.395 3.003 1.381 3.003 3.266 0 1.819-1.14 3.003-2.805 3.726-1.008 0.438-2.258 0.592-3.551 0.592-0.964 0-3.573-0.11-5.041-0.066-0.153-0.066 0.132-0.745 0.263-0.855 0.351-0.022 0.614-0.044 0.964-0.153 0.504-0.131 0.57-0.285 0.658-1.074 0.044-0.658 0.044-3.025 0.044-4.712 0-2.301 0.022-3.879 0-4.625-0.022-0.592-0.219-0.789-0.658-0.899-0.329-0.066-0.855-0.132-1.293-0.197-0.088-0.11 0.241-0.767 0.351-0.833v0 0zM87.299 24.395c0.46 0.373 1.359 0.504 2.148 0.504 1.030 0 2.060-0.197 3.047-1.096 1.008-0.921 1.71-2.323 1.71-4.581 0-2.148-0.811-3.901-2.499-4.931-0.942-0.592-2.17-0.833-3.573-0.833-0.416 0-0.811 0.022-1.074 0.132-0.066 0.044-0.197 0.219-0.197 0.307-0.044 0.373-0.044 3.31-0.044 5.041 0 1.775 0 4.252 0.044 4.537 0.022 0.285 0.153 0.723 0.438 0.921v0 0zM82.959 12.537c0.373 0 1.753 0.066 2.411 0.066 1.205 0 2.060-0.066 4.318-0.066 1.907 0 3.507 0.504 4.647 1.49 1.381 1.205 2.126 2.849 2.126 4.888 0 2.871-1.315 4.537-2.63 5.479-1.315 0.964-3.025 1.534-5.479 1.534-1.293 0-3.529-0.044-5.37-0.066h-0.022c-0.088-0.175 0.153-0.833 0.307-0.855 0.504-0.066 0.636-0.066 0.877-0.175 0.395-0.153 0.482-0.373 0.526-1.074 0.066-1.315 0.044-2.893 0.044-4.69 0-1.271 0.022-3.77-0.022-4.581-0.066-0.658-0.351-0.833-0.921-0.942-0.285-0.066-0.658-0.132-1.205-0.197-0.044-0.11 0.307-0.701 0.395-0.811v0 0z"></path>
<path fill="#442d22" style="fill: var(--color3, #442d22)" d="M59.901 25.14c-0.482-0.066-0.811-0.131-1.249-0.329-0.066-0.044-0.153-0.219-0.153-0.307-0.044-0.658-0.044-2.564-0.044-3.858 0-1.030-0.175-1.929-0.614-2.564-0.504-0.723-1.249-1.14-2.214-1.14-0.833 0-1.973 0.57-2.893 1.381-0.022 0.022-0.175 0.153-0.153-0.066 0-0.219 0.044-0.636 0.066-0.921 0.022-0.263-0.132-0.395-0.132-0.395-0.614 0.307-2.323 0.701-2.959 0.767-0.46 0.088-0.57 0.526-0.088 0.679h0.022c0.504 0.153 0.855 0.329 1.118 0.504 0.197 0.153 0.175 0.373 0.175 0.526 0.022 1.425 0.022 3.616-0.044 4.822-0.022 0.482-0.153 0.658-0.504 0.723l0.044-0.022c-0.263 0.066-0.482 0.11-0.811 0.153-0.11 0.11-0.11 0.723 0 0.855 0.219 0 1.315-0.066 2.236-0.066 1.249 0 1.907 0.066 2.236 0.066 0.132-0.153 0.175-0.723 0.088-0.855-0.373-0.022-0.636-0.066-0.877-0.131-0.351-0.066-0.438-0.241-0.46-0.658-0.044-1.008-0.044-3.134-0.044-4.603 0-0.395 0.11-0.592 0.219-0.701 0.438-0.373 1.14-0.658 1.775-0.658 0.614 0 1.008 0.197 1.315 0.438 0.416 0.351 0.548 0.833 0.614 1.205 0.088 0.811 0.066 2.433 0.066 3.858 0 0.767-0.066 0.942-0.351 1.052-0.132 0.066-0.482 0.131-0.877 0.175-0.132 0.131-0.088 0.723 0 0.855 0.548 0 1.205-0.066 2.148-0.066 1.184 0 1.951 0.066 2.258 0.066 0.132-0.088 0.175-0.636 0.088-0.789v0 0zM65.184 17.863c-1.008 0-1.644 0.789-1.644 1.995 0 1.249 0.548 2.674 2.126 2.674 0.263 0 0.767-0.11 0.986-0.373 0.373-0.351 0.614-1.030 0.614-1.753 0-1.6-0.789-2.542-2.082-2.542v0 0zM65.052 26.279c-0.373 0-0.658 0.11-0.811 0.219-0.811 0.504-1.162 1.008-1.162 1.6 0 0.548 0.219 0.986 0.658 1.381 0.548 0.482 1.315 0.701 2.279 0.701 1.951 0 2.805-1.052 2.805-2.082 0-0.723-0.373-1.205-1.096-1.468-0.548-0.241-1.512-0.351-2.674-0.351v0 0zM65.184 31.233c-1.162 0-1.995-0.241-2.718-0.811-0.701-0.526-1.008-1.337-1.008-1.885 0-0.153 0.044-0.57 0.373-0.942 0.219-0.219 0.658-0.658 1.753-1.403 0.044-0.022 0.066-0.044 0.066-0.066 0-0.044-0.044-0.066-0.066-0.088-0.899-0.351-1.162-0.899-1.249-1.205v-0.066c-0.022-0.11-0.066-0.219 0.11-0.351 0.132-0.088 0.329-0.219 0.526-0.351 0.329-0.197 0.658-0.395 0.877-0.57 0.044-0.044 0.044-0.066 0.044-0.11s-0.044-0.066-0.066-0.088c-1.337-0.438-1.995-1.425-1.995-2.915 0-0.964 0.438-1.841 1.227-2.411 0.526-0.416 1.863-0.942 2.74-0.942h0.066c0.899 0.022 1.381 0.219 2.104 0.46 0.373 0.131 0.745 0.197 1.249 0.197 0.745 0 1.074-0.219 1.337-0.504 0.022 0.044 0.066 0.131 0.066 0.373 0.022 0.241-0.066 0.614-0.241 0.877-0.153 0.219-0.504 0.373-0.833 0.373h-0.088c-0.351-0.044-0.504-0.066-0.504-0.066l-0.066 0.044c-0.022 0.044 0 0.066 0.022 0.131l0.022 0.044c0.044 0.175 0.11 0.679 0.11 0.811 0 1.556-0.636 2.258-1.293 2.762-0.658 0.482-1.381 0.789-2.236 0.855-0.022 0-0.088 0-0.263 0.022-0.088 0-0.219 0.022-0.241 0.022h-0.022c-0.153 0.044-0.526 0.219-0.526 0.548 0 0.285 0.175 0.636 0.986 0.679 0.175 0.022 0.351 0.022 0.526 0.044 1.096 0.066 2.433 0.175 3.069 0.373 0.877 0.329 1.425 1.096 1.425 2.038 0 1.403-1.008 2.718-2.696 3.551-0.877 0.373-1.688 0.57-2.586 0.57v0 0zM76.055 17.951c-0.395 0-0.767 0.088-1.030 0.285-0.745 0.46-1.118 1.381-1.118 2.696 0 2.499 1.249 4.252 3.047 4.252 0.526 0 0.942-0.153 1.315-0.46 0.548-0.46 0.833-1.381 0.833-2.652 0-2.455-1.249-4.121-3.047-4.121v0 0zM76.384 26.104c-3.244 0-4.405-2.389-4.405-4.603 0-1.556 0.636-2.762 1.885-3.616 0.899-0.548 1.973-0.855 2.915-0.855 2.477 0 4.208 1.775 4.208 4.318 0 1.732-0.679 3.112-1.995 3.945-0.614 0.416-1.71 0.811-2.608 0.811v0 0zM42.433 17.951c-0.395 0-0.767 0.088-1.030 0.285-0.745 0.46-1.118 1.381-1.118 2.696 0 2.499 1.249 4.252 3.047 4.252 0.526 0 0.942-0.153 1.315-0.46 0.548-0.46 0.833-1.381 0.833-2.652 0-2.455-1.227-4.121-3.047-4.121v0 0zM42.784 26.104c-3.244 0-4.405-2.389-4.405-4.603 0-1.556 0.636-2.762 1.885-3.616 0.899-0.548 1.973-0.855 2.915-0.855 2.477 0 4.208 1.775 4.208 4.318 0 1.732-0.679 3.112-1.995 3.945-0.614 0.416-1.71 0.811-2.608 0.811v0 0zM20.997 25.907c-0.044-0.066-0.066-0.219-0.066-0.438 0-0.153 0.044-0.241 0.066-0.285 0.395-0.066 0.614-0.11 0.833-0.175 0.373-0.088 0.526-0.307 0.548-0.789 0.066-1.14 0.066-3.31 0.044-4.822v-0.044c0-0.175 0-0.373-0.219-0.526-0.307-0.197-0.658-0.373-1.14-0.504-0.175-0.066-0.285-0.153-0.263-0.263 0-0.11 0.11-0.241 0.373-0.285 0.636-0.066 2.258-0.46 2.915-0.745 0.044 0.044 0.088 0.153 0.088 0.307l-0.022 0.219c-0.022 0.219-0.044 0.46-0.044 0.701 0 0.066 0.066 0.131 0.153 0.131 0.044 0 0.066-0.022 0.11-0.044 1.227-0.942 2.323-1.293 2.893-1.293 0.942 0 1.666 0.438 2.214 1.359 0.044 0.066 0.066 0.066 0.131 0.066 0.044 0 0.088-0.022 0.11-0.066 1.118-0.855 2.258-1.381 3.003-1.381 1.775 0 2.827 1.315 2.827 3.551 0 0.636 0 1.447-0.022 2.192 0 0.658-0.022 1.271-0.022 1.71 0 0.088 0.132 0.395 0.351 0.46 0.263 0.131 0.636 0.197 1.096 0.263h0.022c0.044 0.131-0.044 0.636-0.11 0.723-0.11 0-0.285 0-0.482-0.022-0.373-0.022-0.877-0.044-1.447-0.044-1.184 0-1.797 0.022-2.389 0.066-0.044-0.153-0.066-0.614 0-0.723 0.351-0.066 0.504-0.11 0.723-0.175 0.373-0.11 0.482-0.285 0.504-0.789 0-0.373 0.066-3.441-0.044-4.186-0.11-0.767-0.679-1.666-1.951-1.666-0.482 0-1.227 0.197-1.951 0.745-0.044 0.044-0.066 0.131-0.066 0.197v0.022c0.066 0.395 0.066 0.855 0.066 1.556v1.249c0 0.855-0.022 1.666 0 2.258 0 0.416 0.241 0.504 0.46 0.592 0.11 0.022 0.197 0.044 0.285 0.066 0.175 0.044 0.351 0.066 0.614 0.131 0.044 0.066 0.044 0.329-0.022 0.526-0.022 0.11-0.066 0.175-0.066 0.197-0.658-0.022-1.315-0.044-2.279-0.044-0.285 0-0.789 0.022-1.205 0.022-0.351 0-0.658 0.022-0.855 0.022-0.022-0.044-0.066-0.175-0.066-0.373 0-0.175 0.044-0.307 0.066-0.351 0.088-0.022 0.175-0.044 0.263-0.044 0.219-0.044 0.416-0.066 0.614-0.11 0.329-0.088 0.438-0.263 0.46-0.679 0.066-0.942 0.11-3.682-0.022-4.362-0.219-1.096-0.855-1.666-1.863-1.666-0.592 0-1.337 0.285-1.951 0.745-0.088 0.066-0.175 0.263-0.175 0.438v1.118c0 1.381 0 3.090 0.022 3.836 0.022 0.219 0.088 0.504 0.526 0.592 0.088 0.022 0.241 0.066 0.438 0.066l0.351 0.066c0.044 0.11 0.022 0.57-0.066 0.723-0.197 0-0.416-0.022-0.679-0.022-0.395-0.022-0.921-0.044-1.49-0.044-0.658 0-1.14 0.022-1.534 0.044-0.219 0-0.438 0-0.658 0v0 0z"></path>
<path fill="#fff" style="fill: var(--color4, #fff)" d="M10.959 30.488l-0.789-0.263c0 0 0.088-3.989-1.337-4.274-0.942-1.096 0.153-46.882 3.573-0.153 0 0-1.184 0.592-1.381 1.6-0.219 0.986-0.066 3.090-0.066 3.090v0 0z"></path>
<path fill="#a6a385" style="fill: var(--color5, #a6a385)" d="M10.959 30.488l-0.789-0.263c0 0 0.088-3.989-1.337-4.274-0.942-1.096 0.153-46.882 3.573-0.153 0 0-1.184 0.592-1.381 1.6-0.219 0.986-0.066 3.090-0.066 3.090v0 0z"></path>
<path fill="#fff" style="fill: var(--color4, #fff)" d="M11.375 26.63c0 0 6.838-4.493 5.238-13.852-1.534-6.795-5.195-9.030-5.589-9.885-0.438-0.614-0.855-1.688-0.855-1.688l0.285 18.915c0.022 0.044-0.57 5.808 0.921 6.51z"></path>
<path fill="#499d4a" style="fill: var(--color6, #499d4a)" d="M11.375 26.63c0 0 6.838-4.493 5.238-13.852-1.534-6.795-5.195-9.030-5.589-9.885-0.438-0.614-0.855-1.688-0.855-1.688l0.285 18.915c0.022 0.044-0.57 5.808 0.921 6.51z"></path>
<path fill="#fff" style="fill: var(--color4, #fff)" d="M9.775 26.893c0 0-6.422-4.384-6.049-12.099s4.888-11.507 5.764-12.208c0.592-0.614 0.614-0.833 0.658-1.447 0.395 0.855 0.329 12.822 0.373 14.247 0.175 5.414-0.307 10.477-0.745 11.507v0 0z"></path>
<path fill="#58aa50" style="fill: var(--color7, #58aa50)" d="M9.775 26.893c0 0-6.422-4.384-6.049-12.099s4.888-11.507 5.764-12.208c0.592-0.614 0.614-0.833 0.658-1.447 0.395 0.855 0.329 12.822 0.373 14.247 0.175 5.414-0.307 10.477-0.745 11.507v0 0z"></path>
</symbol>
<symbol id="icon-react" viewBox="0 0 32 32">
<path fill="#61dafb" style="fill: var(--color8, #61dafb)" d="M18.325 11.875c0 1.284-1.041 2.325-2.325 2.325s-2.325-1.041-2.325-2.325c0-1.284 1.041-2.325 2.325-2.325s2.325 1.041 2.325 2.325z"></path>
<path fill="#61dafb" style="fill: var(--color8, #61dafb)" d="M16 20.425c1.825 1.775 3.625 2.825 5.075 2.825 0.475 0 0.925-0.1 1.3-0.325 1.3-0.75 1.775-2.625 1.325-5.3-0.075-0.475-0.175-0.95-0.3-1.45 0.5-0.15 0.95-0.3 1.4-0.45 2.525-0.975 3.925-2.325 3.925-3.8 0-1.5-1.4-2.85-3.925-3.8-0.45-0.175-0.9-0.325-1.4-0.45 0.125-0.5 0.225-0.975 0.3-1.45 0.425-2.725-0.050-4.625-1.35-5.375-0.375-0.225-0.825-0.325-1.3-0.325-1.425 0-3.25 1.050-5.075 2.825-1.8-1.775-3.6-2.825-5.050-2.825-0.475 0-0.925 0.1-1.3 0.325-1.3 0.75-1.775 2.625-1.325 5.3 0.075 0.475 0.175 0.95 0.3 1.45-0.5 0.15-0.95 0.3-1.4 0.45-2.525 0.975-3.925 2.325-3.925 3.8 0 1.5 1.4 2.85 3.925 3.8 0.45 0.175 0.9 0.325 1.4 0.45-0.125 0.5-0.225 0.975-0.3 1.45-0.425 2.675 0.050 4.575 1.325 5.3 0.375 0.225 0.825 0.325 1.3 0.325 1.45 0.050 3.25-1 5.075-2.75zM14.6 17.050c0.45 0.025 0.925 0.025 1.4 0.025s0.95 0 1.4-0.025c-0.45 0.6-0.925 1.15-1.4 1.675-0.475-0.525-0.95-1.075-1.4-1.675zM11.5 14.475c0.25 0.425 0.475 0.825 0.75 1.225-0.775-0.1-1.5-0.225-2.2-0.375 0.225-0.675 0.475-1.375 0.775-2.075 0.2 0.4 0.425 0.825 0.675 1.225zM10.050 8.45c0.7-0.15 1.425-0.275 2.2-0.375-0.25 0.4-0.5 0.8-0.75 1.225s-0.475 0.825-0.675 1.25c-0.325-0.725-0.575-1.425-0.775-2.1zM11.425 11.875c0.325-0.675 0.675-1.35 1.075-2.025 0.375-0.65 0.8-1.3 1.225-1.95 0.75-0.050 1.5-0.075 2.275-0.075 0.8 0 1.55 0.025 2.275 0.075 0.45 0.65 0.85 1.3 1.225 1.95 0.4 0.675 0.75 1.35 1.075 2.025-0.325 0.675-0.675 1.35-1.075 2.025-0.375 0.65-0.8 1.3-1.225 1.95-0.75 0.050-1.5 0.075-2.275 0.075-0.8 0-1.55-0.025-2.275-0.075-0.45-0.65-0.85-1.3-1.225-1.95-0.4-0.675-0.75-1.35-1.075-2.025zM21.2 10.525l-0.675-1.25c-0.25-0.425-0.475-0.825-0.75-1.225 0.775 0.1 1.5 0.225 2.2 0.375-0.225 0.7-0.475 1.4-0.775 2.1zM21.2 13.225c0.3 0.7 0.55 1.4 0.775 2.075-0.7 0.15-1.425 0.275-2.2 0.375 0.25-0.4 0.5-0.8 0.75-1.225 0.225-0.375 0.45-0.8 0.675-1.225zM21.775 21.9c-0.2 0.125-0.45 0.175-0.725 0.175-1.225 0-2.75-1-4.25-2.5 0.725-0.775 1.425-1.65 2.125-2.625 1.175-0.1 2.3-0.275 3.35-0.525 0.125 0.45 0.2 0.9 0.275 1.35 0.35 2.125 0.075 3.65-0.775 4.125zM23.075 8.725c2.8 0.8 4.475 2.025 4.475 3.15 0 0.975-1.15 1.95-3.175 2.725-0.4 0.15-0.85 0.3-1.3 0.425-0.325-1.025-0.725-2.075-1.225-3.15 0.5-1.075 0.925-2.125 1.225-3.15zM21.075 1.675c0.275 0 0.5 0.050 0.725 0.175 0.825 0.475 1.125 1.975 0.775 4.125-0.075 0.425-0.175 0.875-0.275 1.35-1.050-0.225-2.175-0.4-3.35-0.525-0.675-0.975-1.4-1.85-2.125-2.625 1.5-1.475 3.025-2.5 4.25-2.5zM17.4 6.7c-0.45-0.025-0.925-0.025-1.4-0.025s-0.95 0-1.4 0.025c0.45-0.6 0.925-1.15 1.4-1.675 0.475 0.525 0.95 1.1 1.4 1.675zM10.225 1.85c0.2-0.125 0.45-0.175 0.725-0.175 1.225 0 2.75 1 4.25 2.5-0.725 0.775-1.425 1.65-2.125 2.625-1.175 0.1-2.3 0.275-3.35 0.525-0.125-0.45-0.2-0.9-0.275-1.35-0.35-2.125-0.075-3.625 0.775-4.125zM8.925 15.025c-2.8-0.8-4.475-2.025-4.475-3.15 0-0.975 1.15-1.95 3.175-2.725 0.4-0.15 0.85-0.3 1.3-0.425 0.325 1.025 0.725 2.075 1.225 3.15-0.5 1.075-0.925 2.15-1.225 3.15zM9.45 17.775c0.075-0.425 0.175-0.875 0.275-1.35 1.050 0.225 2.175 0.4 3.35 0.525 0.675 0.975 1.4 1.85 2.125 2.625-1.5 1.475-3.025 2.5-4.25 2.5-0.275 0-0.5-0.050-0.725-0.175-0.85-0.475-1.125-2-0.775-4.125zM8.4 28.075c0.55-0.675 0.575-1.425 0.275-2.175s-0.925-1.1-1.7-1.125c-0.925-0.025-1.875 0-2.8 0h-0.175v6.475h0.75v-2.45h1.175c0.15 0 0.275 0.050 0.35 0.175l1.5 2.325c0.025 0.050 0.1 0.125 0.15 0.125h0.975c-0.6-0.925-1.175-1.8-1.775-2.7 0.525-0.075 0.975-0.25 1.275-0.65zM4.75 28.025v-2.475h0.275c0.575 0 1.175-0.025 1.75 0.025 0.675 0.025 1.15 0.55 1.15 1.225s-0.55 1.2-1.225 1.225c-0.6 0.025-1.2 0-1.95 0zM14.425 28.35c-0.4-1.75-2-2.2-3.225-1.65-0.95 0.425-1.375 1.25-1.4 2.275-0.025 0.775 0.2 1.475 0.8 2 0.675 0.6 1.5 0.675 2.35 0.525 0.475-0.1 0.9-0.325 1.225-0.675-0.125-0.175-0.25-0.35-0.375-0.5-0.7 0.6-1.475 0.8-2.325 0.4-0.55-0.275-0.825-0.95-0.875-1.45h3.875v-0.325c0.025-0.225 0-0.425-0.050-0.6zM10.65 28.75c-0.075-0.75 0.675-1.55 1.5-1.55 0.95-0.025 1.55 0.55 1.575 1.55h-3.075zM18.325 26.575c-0.375-0.075-0.775-0.1-1.15-0.075-0.6 0.050-1.125 0.325-1.55 0.775 0.125 0.175 0.225 0.35 0.375 0.55 0.050-0.050 0.1-0.1 0.15-0.125 0.4-0.375 0.875-0.575 1.45-0.525 0.45 0.025 0.875 0.175 1 0.625 0.1 0.35 0.075 0.725 0.1 1.1-0.075 0-0.1-0.025-0.125-0.050-0.6-0.5-1.275-0.6-2-0.425-0.675 0.175-1.1 0.7-1.15 1.375-0.050 0.775 0.3 1.35 0.975 1.625 0.425 0.175 0.9 0.175 1.35 0.075 0.35-0.075 0.5-0.275 1-0.55v0.325h0.7c0-1 0.025-2.225 0-3.375 0-0.725-0.425-1.175-1.125-1.325zM18.675 29.725c-0.025 0.075 0 0.15 0 0.225 0 0.525-0.125 0.7-0.625 0.9-0.35 0.125-0.725 0.175-1.1 0.050-0.425-0.125-0.725-0.5-0.725-0.925-0.025-0.425 0.25-0.85 0.675-0.975 0.575-0.2 1.1-0.075 1.575 0.275 0.15 0.125 0.25 0.25 0.2 0.45zM22.575 27.25c0.65-0.2 1.25-0.075 1.7 0.475l0.075 0.050c0.175-0.15 0.325-0.3 0.525-0.475-0.075-0.075-0.1-0.125-0.15-0.2-0.725-0.775-2.15-0.875-3.025-0.25-1.225 0.9-1.2 2.65-0.6 3.575 0.575 0.875 1.4 1.175 2.375 1.050 0.575-0.075 1.050-0.35 1.425-0.825-0.175-0.15-0.35-0.3-0.525-0.475-0.050 0.050-0.075 0.075-0.1 0.125-0.675 0.75-1.8 0.675-2.4-0.125-0.35-0.475-0.425-1.025-0.325-1.575 0.050-0.625 0.375-1.125 1.025-1.35zM27.775 30.65c-0.050 0.025-0.075 0.050-0.075 0.050-0.2 0.15-0.4 0.175-0.625 0.1-0.225-0.1-0.25-0.3-0.275-0.5v-2.85c0-0.050 0 0.050 0.025-0.2h0.95v-0.75h-1v-1.25h-0.75v1.35h-0.65c-0.050 0-0.125 0.050-0.125 0.1-0.025 0.175 0 0.3 0 0.55h0.8v3.2c0 0.4 0.1 0.75 0.45 0.95 0.375 0.225 1.1 0.175 1.425-0.1 0.050-0.025 0.075-0.125 0.075-0.15-0.075-0.15-0.15-0.325-0.225-0.5z"></path>
</symbol>
<symbol id="icon-scss" viewBox="0 0 32 32">
<path d="M28 9v13h-2v-13h-4c-1.657 0-3-1.343-3-3v0-4h-11c-1.105 0-2 0.895-2 2v0 18h-2v-18c0-2.209 1.791-4 4-4v0h11l9 9zM2.712 30.58c-0.127-0.262-0.207-0.569-0.222-0.893l-0-0.005h1.53c0.059 0.324 0.246 0.595 0.506 0.765l0.004 0.003c0.14 0.098 0.306 0.174 0.498 0.228 0.19 0.056 0.404 0.082 0.638 0.082 0.328 0 0.604-0.046 0.826-0.14 0.209-0.079 0.382-0.213 0.508-0.383l0.002-0.003c0.107-0.158 0.17-0.352 0.17-0.562 0-0.006-0-0.013-0-0.019v0.001c0-0.010 0.001-0.023 0.001-0.035 0-0.251-0.12-0.474-0.305-0.616l-0.002-0.001c-0.202-0.16-0.51-0.288-0.924-0.386l-1.238-0.286c-0.407-0.088-0.768-0.236-1.093-0.436l0.015 0.009c-0.294-0.183-0.531-0.43-0.697-0.724l-0.005-0.010c-0.155-0.289-0.247-0.632-0.247-0.996 0-0.018 0-0.036 0.001-0.054l-0 0.003c0-0.488 0.126-0.914 0.38-1.278 0.254-0.362 0.606-0.644 1.056-0.844 0.448-0.2 0.966-0.298 1.552-0.298 0.61 0 1.128 0.1 1.56 0.304s0.766 0.478 1 0.82c0.24 0.34 0.372 0.718 0.4 1.132h-1.5c-0.037-0.199-0.121-0.374-0.241-0.518l0.001 0.002c-0.131-0.157-0.296-0.281-0.486-0.359l-0.008-0.003c-0.206-0.086-0.445-0.136-0.697-0.136-0.015 0-0.029 0-0.044 0l0.002-0c-0.434 0-0.776 0.1-1.026 0.304-0.225 0.174-0.368 0.444-0.368 0.748 0 0.007 0 0.014 0 0.021l-0-0.001c0 0.242 0.096 0.44 0.286 0.6 0.228 0.17 0.501 0.293 0.798 0.348l0.012 0.002 1.24 0.286c0.434 0.1 0.812 0.24 1.132 0.422 0.32 0.18 0.57 0.42 0.75 0.716s0.27 0.67 0.27 1.12c0 0.494-0.126 0.932-0.376 1.312-0.266 0.388-0.633 0.69-1.062 0.872l-0.016 0.006c-0.468 0.21-1.040 0.316-1.716 0.316-0.508 0-0.952-0.060-1.33-0.18-0.367-0.112-0.686-0.285-0.961-0.508l0.005 0.004c-0.241-0.204-0.436-0.454-0.574-0.737l-0.006-0.013zM11.26 26.12c-0.131 0.351-0.207 0.756-0.207 1.18 0 0.030 0 0.061 0.001 0.091l-0-0.004v0.99c0 0.492 0.068 0.91 0.206 1.254 0.12 0.323 0.326 0.59 0.591 0.781l0.005 0.003c0.257 0.166 0.571 0.265 0.909 0.265 0.017 0 0.033-0 0.050-0.001l-0.002 0c0.012 0 0.026 0 0.039 0 0.278 0 0.54-0.065 0.773-0.181l-0.010 0.005c0.226-0.117 0.411-0.286 0.543-0.492l0.003-0.006c0.13-0.207 0.214-0.455 0.234-0.721l0-0.005h1.53v0.152c-0.021 0.507-0.187 0.971-0.457 1.356l0.005-0.008c-0.282 0.39-0.652 0.699-1.083 0.901l-0.017 0.007c-0.442 0.207-0.96 0.329-1.507 0.329-0.023 0-0.046-0-0.068-0.001l0.003 0c-0.72 0-1.328-0.144-1.828-0.434-0.498-0.295-0.891-0.723-1.135-1.235l-0.007-0.017c-0.26-0.544-0.388-1.194-0.388-1.952v-0.996c0-0.76 0.132-1.41 0.394-1.958 0.25-0.534 0.642-0.966 1.127-1.259l0.013-0.007c0.506-0.296 1.114-0.444 1.824-0.444 0.438 0 0.842 0.064 1.214 0.194 0.374 0.124 0.7 0.306 0.978 0.544 0.55 0.47 0.905 1.155 0.932 1.923l0 0.005v0.146h-1.53c-0.020-0.283-0.107-0.543-0.244-0.767l0.004 0.007c-0.133-0.221-0.318-0.399-0.539-0.518l-0.007-0.004c-0.221-0.122-0.485-0.194-0.766-0.194-0.011 0-0.021 0-0.032 0l0.002-0c-0.013-0-0.027-0.001-0.042-0.001-0.339 0-0.653 0.103-0.913 0.28l0.006-0.004c-0.271 0.2-0.479 0.47-0.598 0.784l-0.004 0.012zM16.478 29.682c0.025 0.661 0.33 1.246 0.799 1.643l0.003 0.003c0.258 0.216 0.576 0.384 0.956 0.504 0.38 0.122 0.82 0.182 1.33 0.182 0.676 0 1.248-0.106 1.716-0.316 0.472-0.21 0.832-0.504 1.080-0.88 0.235-0.359 0.374-0.798 0.374-1.27 0-0.015-0-0.030-0-0.045l0 0.002c0-0.448-0.090-0.82-0.27-1.12-0.186-0.3-0.439-0.542-0.74-0.709l-0.010-0.005c-0.326-0.184-0.705-0.329-1.105-0.415l-0.027-0.005-1.24-0.288c-0.309-0.058-0.582-0.181-0.815-0.356l0.005 0.004c-0.175-0.137-0.286-0.348-0.286-0.584 0-0.005 0-0.009 0-0.014v0.001c0-0.312 0.122-0.568 0.368-0.768 0.25-0.202 0.592-0.304 1.026-0.304 0.284 0 0.53 0.046 0.738 0.136 0.197 0.081 0.362 0.205 0.49 0.36l0.002 0.002c0.119 0.142 0.203 0.317 0.239 0.509l0.001 0.007h1.5c-0.027-0.427-0.173-0.816-0.404-1.139l0.004 0.007c-0.253-0.356-0.591-0.636-0.985-0.814l-0.015-0.006c-0.429-0.193-0.93-0.305-1.457-0.305-0.036 0-0.073 0.001-0.109 0.002l0.005-0c-0.584 0-1.102 0.1-1.552 0.3-0.448 0.198-0.8 0.48-1.054 0.842-0.254 0.364-0.38 0.79-0.38 1.278 0 0.402 0.080 0.752 0.246 1.048 0.164 0.298 0.398 0.54 0.702 0.734 0.304 0.19 0.664 0.334 1.080 0.426l1.234 0.288c0.414 0.098 0.724 0.226 0.926 0.386 0.187 0.143 0.307 0.366 0.307 0.617 0 0.012-0 0.024-0.001 0.037l0-0.002c0 0.004 0 0.010 0 0.015 0 0.21-0.064 0.406-0.172 0.569l0.002-0.004c-0.128 0.173-0.301 0.307-0.502 0.383l-0.008 0.003c-0.227 0.089-0.489 0.141-0.764 0.141-0.022 0-0.044-0-0.066-0.001l0.003 0c-0.236 0-0.448-0.026-0.64-0.080-0.189-0.053-0.355-0.132-0.504-0.234l0.006 0.004c-0.264-0.173-0.451-0.444-0.509-0.761l-0.001-0.007h-1.526zM23.482 30.58c-0.126-0.263-0.206-0.569-0.22-0.893l-0-0.005h1.528c0.059 0.324 0.246 0.595 0.506 0.765l0.004 0.003c0.14 0.098 0.306 0.174 0.498 0.228 0.19 0.056 0.404 0.082 0.638 0.082 0.328 0 0.604-0.046 0.826-0.14 0.209-0.079 0.382-0.213 0.508-0.383l0.002-0.003c0.107-0.158 0.17-0.352 0.17-0.562 0-0.006-0-0.013-0-0.019v0.001c0.001-0.011 0.001-0.024 0.001-0.036 0-0.25-0.119-0.473-0.303-0.614l-0.002-0.001c-0.204-0.16-0.512-0.288-0.926-0.386l-1.236-0.286c-0.408-0.088-0.769-0.236-1.095-0.436l0.015 0.009c-0.294-0.183-0.531-0.43-0.697-0.724l-0.005-0.010c-0.155-0.289-0.247-0.632-0.247-0.996 0-0.018 0-0.036 0.001-0.054l-0 0.003c0-0.488 0.126-0.914 0.38-1.278 0.254-0.362 0.606-0.644 1.056-0.844 0.448-0.2 0.966-0.298 1.552-0.298 0.61 0 1.13 0.1 1.56 0.304 0.432 0.204 0.766 0.478 1 0.82 0.24 0.34 0.372 0.718 0.4 1.132h-1.5c-0.037-0.199-0.121-0.374-0.241-0.518l0.001 0.002c-0.131-0.157-0.296-0.281-0.486-0.359l-0.008-0.003c-0.206-0.086-0.445-0.136-0.697-0.136-0.015 0-0.029 0-0.044 0l0.002-0c-0.434 0-0.774 0.1-1.024 0.304-0.226 0.174-0.37 0.445-0.37 0.75 0 0.006 0 0.013 0 0.019v-0.001c0 0.242 0.096 0.44 0.286 0.6 0.228 0.17 0.501 0.293 0.798 0.348l0.012 0.002 1.24 0.286c0.436 0.1 0.812 0.24 1.132 0.422 0.32 0.18 0.57 0.42 0.75 0.716s0.27 0.67 0.27 1.12c0 0.494-0.124 0.932-0.374 1.312-0.267 0.388-0.634 0.69-1.064 0.872l-0.016 0.006c-0.468 0.21-1.040 0.316-1.716 0.316-0.508 0-0.952-0.060-1.33-0.18-0.367-0.112-0.686-0.285-0.961-0.508l0.005 0.004c-0.241-0.204-0.436-0.454-0.574-0.737l-0.006-0.013z"></path>
</symbol>
<symbol id="icon-redux" viewBox="0 0 32 32">
<path fill="#764abc" style="fill: var(--color9, #764abc)" d="M22.177 22.005c1.159-0.1 2.057-1.12 1.999-2.339-0.061-1.219-1.060-2.197-2.277-2.197h-0.081c-1.257 0.041-2.237 1.099-2.197 2.359 0.040 0.639 0.301 1.159 0.659 1.537-1.397 2.717-3.495 4.715-6.672 6.393-2.137 1.117-4.395 1.539-6.592 1.239-1.837-0.259-3.275-1.080-4.155-2.397-1.317-1.999-1.437-4.155-0.34-6.312 0.801-1.559 1.999-2.697 2.799-3.257-0.2-0.519-0.44-1.397-0.56-2.056-5.915 4.236-5.313 10.028-3.516 12.765 1.339 1.997 4.076 3.275 7.072 3.275 0.799 0 1.639-0.059 2.457-0.259 5.195-0.999 9.129-4.115 11.387-8.709zM29.308 17.011c-3.095-3.636-7.651-5.633-12.845-5.633h-0.68c-0.337-0.739-1.116-1.199-1.996-1.199h-0.060c-1.257 0-2.237 1.080-2.196 2.337 0.040 1.197 1.059 2.197 2.277 2.197h0.099c0.9-0.040 1.679-0.6 1.997-1.399h0.74c3.079 0 5.993 0.899 8.651 2.656 2.036 1.339 3.496 3.096 4.315 5.195 0.717 1.717 0.679 3.396-0.060 4.796-1.139 2.196-3.057 3.356-5.593 3.356-1.599 0-3.156-0.5-3.956-0.859-0.479 0.397-1.279 1.057-1.859 1.457 1.757 0.797 3.536 1.257 5.253 1.257 3.896 0 6.791-2.196 7.891-4.315 1.197-2.397 1.099-6.432-1.959-9.888zM8.653 22.723c0.039 1.199 1.057 2.197 2.277 2.197h0.080c1.279-0.040 2.257-1.097 2.197-2.357 0-1.199-1.039-2.196-2.257-2.196h-0.081c-0.080 0-0.199 0-0.3 0.039-1.657-2.797-2.357-5.795-2.096-9.028 0.159-2.437 0.959-4.556 2.396-6.313 1.199-1.499 3.456-2.239 4.995-2.277 4.315-0.081 6.113 5.295 6.252 7.432l1.997 0.599c-0.46-6.552-4.533-9.989-8.429-9.989-3.656 0-7.031 2.657-8.391 6.553-1.857 5.195-0.639 10.188 1.639 14.184-0.199 0.26-0.319 0.719-0.279 1.157z"></path>
</symbol>
<symbol id="icon-wink" viewBox="0 0 32 32">
<path d="M16 32c8.837 0 16-7.163 16-16s-7.163-16-16-16-16 7.163-16 16 7.163 16 16 16zM16 3c7.18 0 13 5.82 13 13s-5.82 13-13 13-13-5.82-13-13 5.82-13 13-13zM16.961 22.22c4.383-0.866 7.785-2.861 9.014-5.519-0.677 5.249-5.047 9.299-10.339 9.299-3.726 0-6.996-2.009-8.84-5.030 2.2 1.721 6.079 2.056 10.165 1.249zM20 11c0-1.657 0.895-3 2-3s2 1.343 2 3c0 1.657-0.895 3-2 3s-2-1.343-2-3zM11 11.609c-1.306 0-2.417 0.489-2.829 1.172-0.111-0.183-0.171-1.005-0.171-1.211 0-0.971 1.343-1.758 3-1.758s3 0.787 3 1.758c0 0.206-0.061 1.028-0.171 1.211-0.412-0.683-1.522-1.172-2.829-1.172z"></path>
</symbol>
</defs>
</svg>
