<svg aria-hidden="true" style="position: absolute; width: 0; height: 0; overflow: hidden;" version="1.1" xmlns="http://www.w3.org/2000/svg" xmlns:xlink="http://www.w3.org/1999/xlink">
<defs>
<symbol id="icon-css" viewBox="0 0 32 32">
<path stroke-linejoin="round" stroke-linecap="round" stroke-miterlimit="4" stroke-width="2.6667" d="M26.667 5.333l-2.667 19.333-8 2.667-8-2.667-2.667-19.333z"></path>
<path stroke-linejoin="round" stroke-linecap="round" stroke-miterlimit="4" stroke-width="2.6667" d="M11.333 10.667h9.333l-6 5.333h5.333l-0.667 4.667-3.333 1-3.333-1-0.133-0.667"></path>
</symbol>
<symbol id="icon-github" viewBox="0 0 32 32">
<path stroke-linejoin="round" stroke-linecap="round" stroke-miterlimit="4" stroke-width="2.6667" d="M12 25.333c-5.733 1.867-5.733-3.333-8-4M20 28v-4.667c0-1.333 0.133-1.867-0.667-2.667 3.733-0.4 7.333-1.867 7.333-8-0.002-1.66-0.663-3.165-1.735-4.268l0.001 0.001c0.227-0.586 0.359-1.263 0.359-1.972 0-0.831-0.181-1.62-0.506-2.33l0.014 0.035s-1.467-0.4-4.667 1.733c-1.24-0.336-2.664-0.529-4.133-0.529s-2.893 0.193-4.248 0.556l0.115-0.026c-3.2-2.133-4.667-1.733-4.667-1.733-0.311 0.675-0.492 1.464-0.492 2.295 0 0.708 0.132 1.386 0.372 2.010l-0.013-0.038c-1.071 1.102-1.732 2.607-1.733 4.266v0c0 6.133 3.6 7.6 7.333 8-0.8 0.8-0.8 1.6-0.667 2.667v4.667"></path>
</symbol>
<symbol id="icon-html" viewBox="0 0 32 32">
<path stroke-linejoin="round" stroke-linecap="round" stroke-miterlimit="4" stroke-width="2.6667" d="M26.667 5.333l-2.667 19.333-8 2.667-8-2.667-2.667-19.333z"></path>
<path stroke-linejoin="round" stroke-linecap="round" stroke-miterlimit="4" stroke-width="2.6667" d="M20.667 10.667h-9.333l0.667 5.333h8l-0.667 4.667-3.333 1-3.333-1-0.133-0.667"></path>
</symbol>
<symbol id="icon-js" viewBox="0 0 32 32">
<path stroke-linejoin="round" stroke-linecap="round" stroke-miterlimit="4" stroke-width="2.6667" d="M12 12v10.725c-0 1.473-1.194 2.666-2.667 2.666-0.489 0-0.947-0.131-1.341-0.361l0.013 0.007-2.091-1.2c-1.156-0.715-1.915-1.976-1.915-3.413 0-0 0-0.001 0-0.001v0-8.847c0-1.438 0.759-2.698 1.898-3.403l0.017-0.010 8-4.889c0.594-0.368 1.314-0.587 2.085-0.587s1.492 0.218 2.102 0.596l-0.017-0.010 8 4.889c1.156 0.715 1.915 1.976 1.915 3.413 0 0 0 0.001 0 0.001v-0 8.845c-0 1.438-0.759 2.698-1.898 3.403l-0.017 0.010-8 4.889c-0.594 0.368-1.314 0.587-2.085 0.587s-1.492-0.218-2.102-0.596l0.017 0.010"></path>
<path stroke-linejoin="round" stroke-linecap="round" stroke-miterlimit="4" stroke-width="2.6667" d="M22.667 12h-4.667c-1.105 0-2 0.895-2 2s0.895 2 2 2v0h2.667c1.105 0 2 0.895 2 2s-0.895 2-2 2v0h-4.667"></path>
</symbol>
<symbol id="icon-mongodb" viewBox="0 0 32 32">
<path stroke-linejoin="round" stroke-linecap="round" stroke-miterlimit="4" stroke-width="2.6667" d="M16 4v25.333"></path>
<path stroke-linejoin="round" stroke-linecap="round" stroke-miterlimit="4" stroke-width="2.6667" d="M24 14.969c0 4.364-2.416 6.36-8 12.364-5.584-6.004-8-8-8-12.364 0-5.939 4.095-9.236 8-12.303 3.905 3.067 8 6.364 8 12.303z"></path>
</symbol>
<symbol id="icon-react" viewBox="0 0 32 32">
<path stroke-linejoin="round" stroke-linecap="round" stroke-miterlimit="4" stroke-width="2.6667" d="M8.408 11.615c-3.469 0.964-5.741 2.568-5.741 4.385 0 2.947 5.969 5.333 13.333 5.333 1.031 0 2.035-0.047 2.997-0.136"></path>
<path stroke-linejoin="round" stroke-linecap="round" stroke-miterlimit="4" stroke-width="2.6667" d="M23.589 20.385c3.471-0.963 5.744-2.568 5.744-4.385 0-2.947-5.969-5.333-13.333-5.333-1.031 0-2.035 0.047-3 0.136"></path>
<path stroke-linejoin="round" stroke-linecap="round" stroke-miterlimit="4" stroke-width="2.6667" d="M8.407 20.383c-0.901 3.487-0.647 6.257 0.927 7.164 2.551 1.473 7.604-2.503 11.285-8.88 0.516-0.893 0.977-1.785 1.381-2.667"></path>
<path stroke-linejoin="round" stroke-linecap="round" stroke-miterlimit="4" stroke-width="2.6667" d="M23.592 11.621c0.903-3.488 0.649-6.261-0.925-7.168-2.551-1.473-7.604 2.503-11.285 8.88-0.516 0.893-0.977 1.787-1.383 2.667"></path>
<path stroke-linejoin="round" stroke-linecap="round" stroke-miterlimit="4" stroke-width="2.6667" d="M16 7.232c-2.567-2.523-5.093-3.688-6.667-2.779-2.551 1.472-1.635 7.836 2.048 14.213 0.515 0.893 1.057 1.739 1.616 2.528"></path>
<path stroke-linejoin="round" stroke-linecap="round" stroke-miterlimit="4" stroke-width="2.6667" d="M16 24.765c2.568 2.524 5.095 3.691 6.667 2.781 2.551-1.472 1.635-7.836-2.048-14.213-0.5-0.867-1.040-1.711-1.616-2.529"></path>
<path stroke-linejoin="round" stroke-linecap="round" stroke-miterlimit="4" stroke-width="2.6667" d="M15.333 17.155c0.193 0.115 0.426 0.183 0.674 0.183 0.736 0 1.333-0.597 1.333-1.333 0-0.494-0.269-0.925-0.668-1.156l-0.006-0.003c-0.189-0.11-0.417-0.174-0.659-0.174-0.736 0-1.333 0.597-1.333 1.333 0 0.488 0.262 0.914 0.653 1.147l0.006 0.003z"></path>
</symbol>
<symbol id="icon-redux" viewBox="0 0 32 32">
<path stroke-linejoin="round" stroke-linecap="round" stroke-miterlimit="4" stroke-width="2.6667" d="M22.053 9.333c-1.073-3.153-3.381-5.333-6.053-5.333-3.699 0-6.697 3.509-6.697 8.661 0 2.608 2.109 6.303 3.349 8"></path>
<path stroke-linejoin="round" stroke-linecap="round" stroke-miterlimit="4" stroke-width="2.6667" d="M6.281 15.972c-2.208 2.503-2.952 5.58-1.615 7.881 1.849 3.187 6.851 3.775 11.335 1.2 2.271-1.305 3.833-4.483 4.688-6.397"></path>
<path stroke-linejoin="round" stroke-linecap="round" stroke-miterlimit="4" stroke-width="2.6667" d="M20.019 26.653c3.348 0 6.031-0.584 7.316-2.8 1.849-3.187-0.287-7.857-4.772-10.432-2.269-1.305-5.809-1.647-7.903-1.427"></path>
<path stroke-linejoin="round" stroke-linecap="round" stroke-miterlimit="4" stroke-width="2.6667" d="M13.991 13.149c0.64 0.368 1.46 0.149 1.829-0.488 0.112-0.191 0.178-0.42 0.178-0.665 0-0.491-0.265-0.92-0.661-1.152l-0.006-0.003c-0.192-0.113-0.424-0.179-0.67-0.179-0.493 0-0.923 0.265-1.157 0.661l-0.003 0.006c-0.112 0.191-0.177 0.42-0.177 0.665 0 0.491 0.266 0.921 0.662 1.152l0.006 0.003z"></path>
<path stroke-linejoin="round" stroke-linecap="round" stroke-miterlimit="4" stroke-width="2.6667" d="M11.333 20.667c0 0.736 0.597 1.333 1.333 1.333s1.333-0.597 1.333-1.333v0c0-0.736-0.597-1.333-1.333-1.333s-1.333 0.597-1.333 1.333v0"></path>
<path stroke-linejoin="round" stroke-linecap="round" stroke-miterlimit="4" stroke-width="2.6667" d="M19.333 18.667c0 0.736 0.597 1.333 1.333 1.333s1.333-0.597 1.333-1.333v0c0-0.736-0.597-1.333-1.333-1.333s-1.333 0.597-1.333 1.333v0"></path>
</symbol>
<symbol id="icon-sass" viewBox="0 0 32 32">
<path stroke-linejoin="round" stroke-linecap="round" stroke-miterlimit="4" stroke-width="2.6667" d="M4 16c0 6.627 5.373 12 12 12s12-5.373 12-12v0c0-6.627-5.373-12-12-12s-12 5.373-12 12v0"></path>
<path stroke-linejoin="round" stroke-linecap="round" stroke-miterlimit="4" stroke-width="2.6667" d="M16 14.031c3.28-1.101 5.333-1.101 5.333-2.873 0-1.821-1.796-1.821-3.647-1.821-2.547 0-4.469 0.653-6.049 2.331-1.131 1.203-1.369 3.265-0.204 4.409 1.297 1.275 4.275 2.385 3.845 4.657-0.311 1.647-1.959 2.431-3.489 1.603-1.043-0.565-0.605-2.328 0.835-3.349s3.763-1.323 5.467-0.32c1.307 0.767 1.395 2.299 0.579 2.924"></path>
</symbol>
<symbol id="icon-typescript" viewBox="0 0 32 32">
<path stroke-linejoin="round" stroke-linecap="round" stroke-miterlimit="4" stroke-width="2.6667" d="M20 23.333c0.427 0.427 1.005 0.667 1.609 0.667h0.724c0.92 0 1.667-0.747 1.667-1.667v-0.333c0-1.105-0.895-2-2-2v0c-1.105 0-2-0.895-2-2v0-0.333c0-0.92 0.747-1.667 1.667-1.667h0.724c0.604 0 1.183 0.24 1.609 0.667"></path>
<path stroke-linejoin="round" stroke-linecap="round" stroke-miterlimit="4" stroke-width="2.6667" d="M12 16h5.333"></path>
<path stroke-linejoin="round" stroke-linecap="round" stroke-miterlimit="4" stroke-width="2.6667" d="M14.667 16v8"></path>
<path stroke-linejoin="round" stroke-linecap="round" stroke-miterlimit="4" stroke-width="2.6667" d="M28 25.333v-18.667c0-1.473-1.194-2.667-2.667-2.667v0h-18.667c-1.473 0-2.667 1.194-2.667 2.667v0 18.667c0 1.473 1.194 2.667 2.667 2.667v0h18.667c1.473 0 2.667-1.194 2.667-2.667v0z"></path>
</symbol>
</defs>
</svg>
